<svg width="686" height="228" viewBox="0 0 686 228" fill="none" xmlns="http://www.w3.org/2000/svg">
<path d="M313.896 120.104C313.384 122.728 312.488 125.16 311.208 127.4C309.992 129.64 308.424 131.592 306.504 133.256C304.584 134.856 302.344 136.104 299.784 137C297.224 137.896 294.376 138.344 291.24 138.344C287.912 138.344 284.744 137.8 281.736 136.712C278.792 135.624 276.2 134.056 273.96 132.008C271.72 129.896 269.928 127.336 268.584 124.328C267.304 121.32 266.664 117.864 266.664 113.96V112.808C266.664 108.968 267.304 105.512 268.584 102.44C269.928 99.368 271.72 96.776 273.96 94.664C276.2 92.552 278.792 90.92 281.736 89.768C284.744 88.616 287.912 88.04 291.24 88.04C294.248 88.04 297.032 88.488 299.592 89.384C302.152 90.28 304.392 91.56 306.312 93.224C308.296 94.824 309.896 96.744 311.112 98.984C312.392 101.224 313.256 103.656 313.704 106.28L306.216 108.008C306.024 106.344 305.544 104.744 304.776 103.208C304.072 101.608 303.08 100.232 301.8 99.08C300.584 97.864 299.08 96.904 297.288 96.2C295.496 95.496 293.416 95.144 291.048 95.144C288.744 95.144 286.568 95.592 284.52 96.488C282.536 97.32 280.776 98.536 279.24 100.136C277.704 101.672 276.488 103.528 275.592 105.704C274.76 107.88 274.344 110.248 274.344 112.808V113.96C274.344 116.648 274.76 119.08 275.592 121.256C276.488 123.368 277.704 125.16 279.24 126.632C280.776 128.104 282.568 129.256 284.616 130.088C286.664 130.856 288.872 131.24 291.24 131.24C293.608 131.24 295.656 130.888 297.384 130.184C299.176 129.416 300.68 128.456 301.896 127.304C303.176 126.088 304.168 124.712 304.872 123.176C305.64 121.64 306.152 120.04 306.408 118.376L313.896 120.104ZM325.445 89.384H342.725V95.72H343.877C345.093 93.096 346.821 91.176 349.061 89.96C351.301 88.68 353.861 88.04 356.741 88.04C361.541 88.04 365.413 89.608 368.357 92.744C371.301 95.88 372.869 100.456 373.061 106.472L365.189 107.624C365.189 103.208 364.133 100.04 362.021 98.12C359.909 96.136 357.317 95.144 354.245 95.144C352.261 95.144 350.533 95.528 349.061 96.296C347.653 97.064 346.469 98.12 345.509 99.464C344.549 100.808 343.845 102.376 343.397 104.168C342.949 105.96 342.725 107.88 342.725 109.928V130.088H354.821V137H324.293V130.088H335.237V96.296H325.445V89.384ZM421.475 128.36H420.323C418.787 131.432 416.771 133.864 414.275 135.656C411.779 137.448 408.611 138.344 404.771 138.344C402.147 138.344 399.715 137.896 397.475 137C395.299 136.168 393.411 134.888 391.811 133.16C390.275 131.432 389.059 129.288 388.163 126.728C387.331 124.168 386.915 121.192 386.915 117.8V89.384H394.403V116.84C394.403 121.832 395.427 125.48 397.475 127.784C399.523 130.088 402.659 131.24 406.883 131.24C411.427 131.24 414.979 129.704 417.539 126.632C420.163 123.496 421.475 119.336 421.475 114.152V89.384H428.963V148.712C428.963 150.888 428.259 152.68 426.851 154.088C425.507 155.496 423.747 156.2 421.571 156.2H394.403V149.288H418.883C420.611 149.288 421.475 148.328 421.475 146.408V128.36ZM451.456 156.2H443.968V89.384H451.456V96.872H452.608C454.272 93.992 456.576 91.816 459.52 90.344C462.464 88.808 465.664 88.04 469.12 88.04C472.064 88.04 474.848 88.584 477.472 89.672C480.096 90.76 482.4 92.328 484.384 94.376C486.432 96.424 488.032 98.952 489.184 101.96C490.4 104.968 491.008 108.392 491.008 112.232V114.152C491.008 118.056 490.432 121.512 489.28 124.52C488.128 127.528 486.528 130.056 484.48 132.104C482.496 134.152 480.16 135.72 477.472 136.808C474.784 137.832 471.936 138.344 468.928 138.344C467.392 138.344 465.824 138.152 464.224 137.768C462.624 137.448 461.088 136.936 459.616 136.232C458.208 135.464 456.896 134.568 455.68 133.544C454.464 132.456 453.44 131.176 452.608 129.704H451.456V156.2ZM467.392 131.24C469.696 131.24 471.808 130.856 473.728 130.088C475.648 129.256 477.312 128.104 478.72 126.632C480.192 125.16 481.312 123.368 482.08 121.256C482.912 119.144 483.328 116.776 483.328 114.152V112.232C483.328 109.672 482.912 107.368 482.08 105.32C481.312 103.208 480.192 101.416 478.72 99.944C477.312 98.408 475.616 97.224 473.632 96.392C471.712 95.56 469.632 95.144 467.392 95.144C465.152 95.144 463.072 95.592 461.152 96.488C459.232 97.32 457.536 98.504 456.064 100.04C454.656 101.576 453.536 103.432 452.704 105.608C451.872 107.72 451.456 110.056 451.456 112.616V113.768C451.456 116.392 451.872 118.792 452.704 120.968C453.536 123.08 454.656 124.904 456.064 126.44C457.536 127.976 459.232 129.16 461.152 129.992C463.072 130.824 465.152 131.24 467.392 131.24ZM502.845 89.384H517.821V69.8H525.309V89.384H543.741V96.296H525.309V127.208C525.309 129.128 526.173 130.088 527.901 130.088H541.437V137H525.213C523.037 137 521.245 136.296 519.837 134.888C518.493 133.48 517.821 131.688 517.821 129.512V96.296H502.845V89.384Z" fill="#C4C4C4"/>
<path d="M584.48 158.84C584.48 165.816 582.752 171.16 579.296 174.872C575.904 178.52 570.912 180.344 564.32 180.344C557.728 180.344 552.512 178.52 548.672 174.872C544.896 171.16 543.008 165.816 543.008 158.84V153.656H551.072V158.84C551.072 163.064 552.16 166.456 554.336 169.016C556.512 171.576 559.84 172.856 564.32 172.856C568.8 172.856 571.936 171.576 573.728 169.016C575.52 166.456 576.416 163.064 576.416 158.84V119.288H569.504V111.8H590.24V119.288H584.48V158.84ZM639.997 131.192C639.997 129.016 639.549 127.096 638.653 125.432C637.821 123.768 636.669 122.392 635.197 121.304C633.725 120.216 632.029 119.384 630.109 118.808C628.189 118.232 626.173 117.944 624.061 117.944C622.205 117.944 620.445 118.2 618.781 118.712C617.117 119.16 615.613 119.832 614.269 120.728C612.989 121.624 611.965 122.744 611.197 124.088C610.429 125.368 610.045 126.872 610.045 128.6V129.176C610.045 131.032 610.429 132.632 611.197 133.976C611.965 135.256 613.085 136.376 614.557 137.336C616.093 138.232 617.981 139 620.221 139.64C622.461 140.216 625.085 140.728 628.093 141.176C635.133 142.264 640.317 144.344 643.645 147.416C646.973 150.424 648.637 154.488 648.637 159.608V160.76C648.637 163.64 648.125 166.296 647.101 168.728C646.141 171.096 644.669 173.144 642.685 174.872C640.765 176.6 638.365 177.944 635.485 178.904C632.605 179.864 629.277 180.344 625.501 180.344C621.213 180.344 617.405 179.736 614.077 178.52C610.813 177.24 608.061 175.512 605.821 173.336C603.645 171.096 601.981 168.504 600.829 165.56C599.677 162.552 599.101 159.288 599.101 155.768V152.888H607.165V155.192C607.165 161.08 608.765 165.496 611.965 168.44C615.229 171.384 619.741 172.856 625.501 172.856C630.493 172.856 634.237 171.768 636.733 169.592C639.293 167.352 640.573 164.408 640.573 160.76V160.184C640.573 156.664 639.261 153.976 636.637 152.12C634.077 150.264 629.885 148.92 624.061 148.088C620.669 147.64 617.597 146.968 614.845 146.072C612.157 145.112 609.853 143.896 607.933 142.424C606.013 140.888 604.541 139.064 603.517 136.952C602.493 134.84 601.981 132.344 601.981 129.464V128.312C601.981 125.688 602.525 123.288 603.613 121.112C604.701 118.936 606.205 117.048 608.125 115.448C610.109 113.848 612.445 112.632 615.133 111.8C617.885 110.904 620.893 110.456 624.157 110.456C627.933 110.456 631.293 111 634.237 112.088C637.245 113.176 639.773 114.648 641.821 116.504C643.869 118.296 645.405 120.44 646.429 122.936C647.517 125.368 648.061 127.928 648.061 130.616V134.648H639.997V131.192Z" fill="#FF9900"/>
<path d="M183.435 89.8644H197.502C197.502 59.5636 172.94 35 142.641 35C112.343 35 87.7805 59.5636 87.7805 89.8644H101.847C101.847 67.333 120.111 49.0678 142.641 49.0678C165.171 49.0678 183.435 67.333 183.435 89.8644Z" fill="#FF9900"/>
<path fill-rule="evenodd" clip-rule="evenodd" d="M211.569 89.8644H73.7137V181C73.7137 192.046 82.668 201 93.7137 201H191.569C202.615 201 211.569 192.046 211.569 181V89.8644ZM152.649 134.92C155.159 132.379 156.708 128.888 156.708 125.034C156.708 117.264 150.41 110.966 142.641 110.966C134.872 110.966 128.574 117.264 128.574 125.034C128.574 129.216 130.399 132.971 133.295 135.548L129.981 165.831H156.708L152.649 134.92Z" fill="#C4C4C4"/>
<rect x="73.4901" y="157.007" width="21.334" height="2.47264" transform="rotate(179.939 73.4901 157.007)" fill="#FF9900"/>
<ellipse cx="51.5927" cy="155.176" rx="3.92995" ry="4.32712" transform="rotate(179.939 51.5927 155.176)" fill="#FF9900"/>
<rect x="73.4763" y="143.938" width="27.827" height="3.17911" transform="rotate(179.939 73.4763 143.938)" fill="#FF9900"/>
<ellipse cx="44.9145" cy="141.583" rx="5.12602" ry="5.56344" transform="rotate(179.939 44.9145 141.583)" fill="#FF9900"/>
<rect x="73.4595" y="128.042" width="15.7686" height="1.76617" transform="rotate(179.939 73.4595 128.042)" fill="#FF9900"/>
<ellipse cx="57.2745" cy="126.735" rx="2.90475" ry="3.0908" transform="rotate(179.939 57.2745 126.735)" fill="#FF9900"/>
<rect x="73.4453" y="114.619" width="25.9719" height="2.82587" transform="rotate(179.939 73.4453 114.619)" fill="#FF9900"/>
<ellipse cx="46.7877" cy="112.528" rx="4.78429" ry="4.94528" transform="rotate(179.939 46.7877 112.528)" fill="#FF9900"/>
<rect x="45.3387" y="105.564" width="17.6238" height="1.76617" transform="rotate(179.939 45.3387 105.564)" fill="#FF9900"/>
<rect width="5.10702" height="1.64423" transform="matrix(-0.454362 -0.890817 0.850588 -0.525833 46.2586 109.212)" fill="#FF9900"/>
<ellipse cx="27.2497" cy="104.258" rx="3.24648" ry="3.0908" transform="rotate(179.939 27.2497 104.258)" fill="#FF9900"/>
<rect x="211.569" y="107.812" width="21.334" height="2.47264" fill="#FF9900"/>
<ellipse cx="233.464" cy="109.666" rx="3.92995" ry="4.32712" fill="#FF9900"/>
<rect x="211.569" y="120.881" width="27.827" height="3.17911" fill="#FF9900"/>
<ellipse cx="240.128" cy="123.266" rx="5.12602" ry="5.56344" fill="#FF9900"/>
<rect x="211.569" y="136.777" width="15.7686" height="1.76617" fill="#FF9900"/>
<ellipse cx="227.752" cy="138.101" rx="2.90475" ry="3.0908" fill="#FF9900"/>
<rect x="211.569" y="150.2" width="25.9719" height="2.82587" fill="#FF9900"/>
<ellipse cx="238.224" cy="152.319" rx="4.78429" ry="4.94528" fill="#FF9900"/>
<rect x="239.666" y="159.285" width="17.6238" height="1.76617" fill="#FF9900"/>
<rect width="5.10702" height="1.64423" transform="matrix(0.453421 0.891297 -0.851143 0.524934 238.75 155.636)" fill="#FF9900"/>
<ellipse cx="257.754" cy="160.61" rx="3.24648" ry="3.0908" fill="#FF9900"/>
</svg>
